<svg xmlns="http://www.w3.org/2000/svg" viewBox="0 0 53 49" width="53" height="49" fill="none">
  <path transform="translate(7.14,13.42)" fill="#889A5C" d="M10.7315 1.54184C10.7315 1.54184 10.8037 2.2108 10.1741 2.2108C9.54445 2.2108 8.46887 1.3582 6.31114 2.43378C4.15341 3.50937 3.15653 3.77171 2.6712 8.48723C2.18588 13.2027 2.7827 22.4436 4.04192 24.5948C4.91581 27.1526 6.97355 30.7204 12.2465 31.6845C17.5195 32.6485 22.9762 33.652 30.0986 33.1339C37.2211 32.6157 42.9073 29.0152 42.9073 28.9037C42.9073 28.7922 42.4613 28.3462 40.7561 28.3856C39.0509 28.4249 36.3751 28.9037 36.0406 28.7922C35.7061 28.6807 36.5587 26.641 36.7489 26.5623C36.9391 26.4836 42.8023 26.3 44.3567 26.7131C45.911 27.1263 46.1012 28.3069 45.5831 29.0873C45.065 29.8678 42.2777 31.9796 36.8997 33.9471C31.5218 35.9146 20.5299 35.954 15.1847 34.8719C9.83958 33.7897 4.67809 31.3106 2.59906 27.1526C0.520031 22.9945 -0.0374367 15.977 0.00191399 13.57C0.0412647 11.1631 -0.0374353 6.88697 1.48412 4.13898C3.00568 1.39099 5.60283 0.203913 7.23588 0.0202764C8.86893 -0.16336 10.6856 0.945017 10.725 1.54184L10.7315 1.54184Z"/>
  <path transform="translate(16.94,12.24)" fill="#A5B8D7" d="M13.2959 9.09954C13.2959 9.09954 15.5717 8.90935 15.5717 10.6539C15.5717 12.3984 13.8009 13.0936 14.1223 13.9528C14.4437 14.8119 15.2241 15.2645 15.8406 15.1858C16.4571 15.1071 17.959 12.851 17.9852 10.8966C18.0115 8.94214 16.5883 7.70915 14.8765 7.25006C13.1648 6.79097 10.8824 7.78785 9.75438 8.93558C8.62633 10.0833 7.5573 12.1755 8.35743 14.3529C9.15756 16.5303 10.8234 17.5927 12.2138 18.183C13.6042 18.7733 16.0439 20.1112 15.5389 22.6034C15.0339 25.0956 12.2663 25.6071 10.2594 25.3907C8.2525 25.1743 4.8749 23.3773 3.26152 20.4325C1.6547 17.4812 1.7334 12.0705 4.36334 8.12889C6.99327 4.18727 12.0826 1.61636 16.7982 2.58045C21.5137 3.54454 25.029 6.86967 26.1767 10.9425C27.3245 15.0153 26.1243 22.3083 23.6583 24.9579C21.1923 27.6075 17.9196 28.8733 17.8934 29.2733C17.8672 29.6734 18.2673 30.3423 19.1264 30.3423C19.9856 30.3423 25.3176 28.3879 27.1146 23.8823C28.9116 19.3766 29.3904 16.1368 29.0428 12.0377C28.6952 7.9387 25.8554 3.45928 21.1661 1.50486C16.4768 -0.449553 12.24 -0.318385 9.10509 0.862135C5.97015 2.04265 2.74996 5.335 1.60223 8.60766C0.454505 11.8803 -0.475126 15.1858 0.264309 18.7142C1.44483 22.0918 3.56321 24.6103 6.10789 26.1909C8.65256 27.7714 14.2535 27.5025 16.2932 25.3842C18.3328 23.2658 17.6311 19.6783 16.4243 18.524C15.2176 17.3697 12.0564 16.3532 10.9808 14.5824C9.90522 12.8116 9.85276 11.2835 10.7381 10.2407C11.6235 9.19792 13.2828 9.08642 13.2828 9.08642L13.2959 9.09954Z"/>
  <path transform="translate(0,1.19)" fill="#889A5C" d="M3.82576 1.51591C3.82576 1.51591 2.55342 -0.123699 1.49751 0.00747042C0.441596 0.138639 -0.220807 1.46345 0.0677648 2.28325C0.356336 3.10306 1.17614 3.55559 1.94348 3.12929C2.71082 2.70299 2.97316 2.97189 3.71426 3.63429C4.45536 4.29669 8.81674 8.39572 9.63654 12.4161C9.63654 12.4161 9.97758 12.6784 10.3252 12.6784C10.6728 12.6784 10.8039 12.521 10.7187 11.7799C10.6334 11.0388 10.1612 9.00566 8.54784 6.54624C6.93446 4.08682 3.81264 1.52247 3.81264 1.52247L3.82576 1.51591Z"/>
  <path transform="translate(8.09,0)" fill="#889A5C" d="M1.26239 0.00655845C1.26239 0.00655845 0.127774 0.29513 0.0162801 1.1674C-0.0952135 2.03968 0.38355 2.57091 0.914784 2.67585C1.44602 2.78078 2.16089 3.83669 2.76427 4.95163C3.36764 6.06656 4.98758 12.1462 5.11875 12.4348C5.24992 12.7234 5.64998 12.7234 5.88609 12.5922C6.12219 12.461 5.78115 9.41793 5.49258 7.96195C5.20401 6.50598 3.40044 2.85948 3.08563 2.38072C2.77083 1.90195 2.69213 1.13461 2.44946 0.609935C2.2068 0.0852598 1.55096 0.0524676 1.26239 0L1.26239 0.00655845Z"/>
  <path transform="translate(11.64,19.06)" fill="#889A5C" d="M1.58279 0.0965238C1.58279 0.0965238 0.867918 -0.18549 0.303892 0.214575C-0.260134 0.61464 0.0218782 1.83451 0.651489 2.06406C1.2811 2.2936 1.81233 1.9001 1.9435 1.53938C2.07467 1.17867 2.14681 0.542498 1.58935 0.0965238L1.58279 0.0965238Z"/>
  <path transform="translate(15.04,18.17)" fill="#889A5C" d="M1.43566 0.0065586C1.43566 0.0065586 0.609297 -0.0852607 0.209232 0.452532C-0.190833 0.990324 0.00591902 1.99377 0.602738 2.2102C1.19956 2.42662 1.698 2.13149 1.82917 1.50844C1.96034 0.88539 2.01936 0.282013 1.43566 0L1.43566 0.0065586Z"/>
</svg>
